<svg width="360" height="362" viewBox="0 0 360 362" fill="none" xmlns="http://www.w3.org/2000/svg">
<path d="M0 10C0 4.47717 4.47715 1.52588e-05 10 1.52588e-05H350C355.523 1.52588e-05 360 4.47717 360 10V352C360 357.523 355.523 362 350 362H10C4.47716 362 0 357.523 0 352V10Z" fill="#28262E"/>
<path d="M0 10C0 4.47715 4.47715 0 10 0H349C354.523 0 359 4.47715 359 10V50H0V10Z" fill="#3E3B47"/>
<path d="M135.641 32V30.7969L136.875 30.5625V22.0703L135.641 21.8359V20.625H136.875H139.695L143.031 28.8516H143.078L146.312 20.625H150.414V21.8359L149.172 22.0703V30.5625L150.414 30.7969V32H145.969V30.7969L147.273 30.5625V27.9141L147.289 22.9375L147.25 22.9297L143.727 31.7422H142.297L138.672 22.9766L138.633 22.9844L138.734 27.7812V30.5625L140.086 30.7969V32H135.641ZM154.273 32.1641C153.414 32.1641 152.745 31.9427 152.266 31.5C151.786 31.0573 151.547 30.4479 151.547 29.6719C151.547 29.1406 151.693 28.6745 151.984 28.2734C152.276 27.8724 152.703 27.5599 153.266 27.3359C153.828 27.1068 154.51 26.9922 155.312 26.9922H156.602V26.2812C156.602 25.8333 156.466 25.4766 156.195 25.2109C155.93 24.9453 155.542 24.8125 155.031 24.8125C154.74 24.8125 154.482 24.849 154.258 24.9219C154.034 24.9896 153.833 25.0885 153.656 25.2188L153.477 26.3594H152.031L152.016 24.2734C152.432 24.0026 152.896 23.7891 153.406 23.6328C153.917 23.4714 154.484 23.3906 155.109 23.3906C156.182 23.3906 157.026 23.6432 157.641 24.1484C158.26 24.6484 158.57 25.3672 158.57 26.3047V30.0312C158.57 30.1458 158.57 30.2578 158.57 30.3672C158.576 30.4766 158.583 30.5833 158.594 30.6875L159.453 30.7969V32H156.883C156.831 31.8177 156.781 31.6406 156.734 31.4688C156.693 31.2969 156.661 31.125 156.641 30.9531C156.359 31.3073 156.018 31.599 155.617 31.8281C155.221 32.0521 154.773 32.1641 154.273 32.1641ZM154.719 30.6406C155.115 30.6406 155.484 30.5495 155.828 30.3672C156.172 30.1797 156.43 29.9453 156.602 29.6641V28.25H155.289C154.701 28.25 154.255 28.388 153.953 28.6641C153.656 28.9349 153.508 29.2526 153.508 29.6172C153.508 29.9453 153.612 30.1979 153.82 30.375C154.029 30.5521 154.328 30.6406 154.719 30.6406ZM160.508 32V30.7969L161.68 30.5625V24.9922L160.445 24.7578V23.5469H163.492L163.594 24.6094L163.609 24.7812C163.833 24.3333 164.107 23.9896 164.43 23.75C164.758 23.5104 165.141 23.3906 165.578 23.3906C165.724 23.3906 165.878 23.4036 166.039 23.4297C166.206 23.4557 166.341 23.4844 166.445 23.5156L166.219 25.3359L165.117 25.2734C164.758 25.2526 164.461 25.3229 164.227 25.4844C163.997 25.6458 163.805 25.8698 163.648 26.1562V30.5625L164.82 30.7969V32H160.508ZM171 32.1641C170.208 32.1641 169.521 31.9844 168.938 31.625C168.359 31.2604 167.911 30.7604 167.594 30.125C167.281 29.4844 167.125 28.7474 167.125 27.9141V27.6406C167.125 26.8229 167.281 26.0938 167.594 25.4531C167.906 24.8125 168.352 24.3099 168.93 23.9453C169.513 23.5755 170.201 23.3906 170.992 23.3906C171.716 23.3906 172.346 23.5078 172.883 23.7422C173.419 23.9714 173.859 24.2578 174.203 24.6016L174.211 26.8594H172.711L172.422 25.3672C172.276 25.2161 172.091 25.0964 171.867 25.0078C171.643 24.9141 171.398 24.8672 171.133 24.8672C170.701 24.8672 170.331 24.9844 170.023 25.2188C169.721 25.4531 169.49 25.7786 169.328 26.1953C169.172 26.6068 169.094 27.0885 169.094 27.6406V27.9141C169.094 28.5078 169.174 29.0078 169.336 29.4141C169.497 29.8203 169.721 30.1276 170.008 30.3359C170.299 30.5443 170.633 30.6484 171.008 30.6484C171.461 30.6484 171.828 30.526 172.109 30.2812C172.396 30.0365 172.583 29.6979 172.672 29.2656H174.375L174.398 29.3125C174.336 29.8646 174.172 30.3568 173.906 30.7891C173.646 31.2161 173.276 31.5521 172.797 31.7969C172.323 32.0417 171.724 32.1641 171 32.1641ZM170.055 35.5078L170 34.4297C170.339 34.4297 170.609 34.3724 170.812 34.2578C171.016 34.1484 171.117 33.9818 171.117 33.7578C171.117 33.5234 171.023 33.362 170.836 33.2734C170.654 33.1849 170.352 33.125 169.93 33.0938L170.211 31.8125H171.656L171.523 32.4453C171.872 32.5026 172.161 32.6328 172.391 32.8359C172.62 33.0443 172.734 33.3542 172.734 33.7656C172.734 34.2917 172.503 34.7135 172.039 35.0312C171.576 35.349 170.914 35.5078 170.055 35.5078ZM179.516 32.1641C178.703 32.1641 178.005 31.9818 177.422 31.6172C176.839 31.2526 176.391 30.7474 176.078 30.1016C175.766 29.4505 175.609 28.7031 175.609 27.8594V27.6953C175.609 26.8568 175.766 26.1146 176.078 25.4688C176.391 24.8229 176.839 24.3151 177.422 23.9453C178.005 23.5755 178.698 23.3906 179.5 23.3906C180.312 23.3906 181.01 23.5755 181.594 23.9453C182.177 24.3099 182.625 24.8151 182.938 25.4609C183.25 26.1068 183.406 26.8516 183.406 27.6953V27.8594C183.406 28.7031 183.25 29.4505 182.938 30.1016C182.625 30.7474 182.177 31.2526 181.594 31.6172C181.016 31.9818 180.323 32.1641 179.516 32.1641ZM179.516 30.6484C179.953 30.6484 180.312 30.5312 180.594 30.2969C180.88 30.0573 181.094 29.7292 181.234 29.3125C181.375 28.8906 181.445 28.4062 181.445 27.8594V27.6953C181.445 27.1536 181.375 26.6745 181.234 26.2578C181.094 25.8411 180.88 25.513 180.594 25.2734C180.307 25.0339 179.943 24.9141 179.5 24.9141C179.068 24.9141 178.708 25.0339 178.422 25.2734C178.135 25.513 177.922 25.8411 177.781 26.2578C177.646 26.6745 177.578 27.1536 177.578 27.6953V27.8594C177.578 28.4062 177.646 28.8906 177.781 29.3125C177.922 29.7292 178.135 30.0573 178.422 30.2969C178.714 30.5312 179.078 30.6484 179.516 30.6484ZM188.594 32V30.6953L192.297 26.6562C192.698 26.2031 193.013 25.8125 193.242 25.4844C193.471 25.1562 193.633 24.8568 193.727 24.5859C193.82 24.3151 193.867 24.0417 193.867 23.7656C193.867 23.2708 193.721 22.8516 193.43 22.5078C193.138 22.1641 192.716 21.9922 192.164 21.9922C191.581 21.9922 191.133 22.1771 190.82 22.5469C190.508 22.9115 190.352 23.4219 190.352 24.0781H188.445L188.43 24.0312C188.414 23.3594 188.557 22.7552 188.859 22.2188C189.161 21.6771 189.596 21.25 190.164 20.9375C190.737 20.6198 191.417 20.4609 192.203 20.4609C192.958 20.4609 193.607 20.599 194.148 20.875C194.69 21.151 195.107 21.5339 195.398 22.0234C195.695 22.513 195.844 23.0781 195.844 23.7188C195.844 24.151 195.76 24.5703 195.594 24.9766C195.432 25.3828 195.185 25.8047 194.852 26.2422C194.523 26.6797 194.109 27.1667 193.609 27.7031L191.07 30.4453L191.086 30.4844H194.492L194.609 29.3047H196.18V32H188.594ZM201.383 32.1641C200.221 32.1641 199.302 31.776 198.625 31C197.953 30.2188 197.617 29.0885 197.617 27.6094V25.0234C197.617 23.5443 197.953 22.4141 198.625 21.6328C199.297 20.8516 200.211 20.4609 201.367 20.4609C202.518 20.4609 203.432 20.8516 204.109 21.6328C204.786 22.4141 205.125 23.5443 205.125 25.0234V27.6094C205.125 29.0938 204.789 30.224 204.117 31C203.445 31.776 202.534 32.1641 201.383 32.1641ZM201.383 30.6484C201.961 30.6484 202.401 30.4219 202.703 29.9688C203.005 29.5156 203.156 28.8151 203.156 27.8672V24.75C203.156 23.8125 203.003 23.1172 202.695 22.6641C202.388 22.2109 201.945 21.9844 201.367 21.9844C200.784 21.9844 200.339 22.2109 200.031 22.6641C199.729 23.112 199.578 23.8073 199.578 24.75V27.8672C199.578 28.8151 199.732 29.5156 200.039 29.9688C200.346 30.4219 200.794 30.6484 201.383 30.6484ZM206.594 32V30.6953L210.297 26.6562C210.698 26.2031 211.013 25.8125 211.242 25.4844C211.471 25.1562 211.633 24.8568 211.727 24.5859C211.82 24.3151 211.867 24.0417 211.867 23.7656C211.867 23.2708 211.721 22.8516 211.43 22.5078C211.138 22.1641 210.716 21.9922 210.164 21.9922C209.581 21.9922 209.133 22.1771 208.82 22.5469C208.508 22.9115 208.352 23.4219 208.352 24.0781H206.445L206.43 24.0312C206.414 23.3594 206.557 22.7552 206.859 22.2188C207.161 21.6771 207.596 21.25 208.164 20.9375C208.737 20.6198 209.417 20.4609 210.203 20.4609C210.958 20.4609 211.607 20.599 212.148 20.875C212.69 21.151 213.107 21.5339 213.398 22.0234C213.695 22.513 213.844 23.0781 213.844 23.7188C213.844 24.151 213.76 24.5703 213.594 24.9766C213.432 25.3828 213.185 25.8047 212.852 26.2422C212.523 26.6797 212.109 27.1667 211.609 27.7031L209.07 30.4453L209.086 30.4844H212.492L212.609 29.3047H214.18V32H206.594ZM219.383 32.1641C218.221 32.1641 217.302 31.776 216.625 31C215.953 30.2188 215.617 29.0885 215.617 27.6094V25.0234C215.617 23.5443 215.953 22.4141 216.625 21.6328C217.297 20.8516 218.211 20.4609 219.367 20.4609C220.518 20.4609 221.432 20.8516 222.109 21.6328C222.786 22.4141 223.125 23.5443 223.125 25.0234V27.6094C223.125 29.0938 222.789 30.224 222.117 31C221.445 31.776 220.534 32.1641 219.383 32.1641ZM219.383 30.6484C219.961 30.6484 220.401 30.4219 220.703 29.9688C221.005 29.5156 221.156 28.8151 221.156 27.8672V24.75C221.156 23.8125 221.003 23.1172 220.695 22.6641C220.388 22.2109 219.945 21.9844 219.367 21.9844C218.784 21.9844 218.339 22.2109 218.031 22.6641C217.729 23.112 217.578 23.8073 217.578 24.75V27.8672C217.578 28.8151 217.732 29.5156 218.039 29.9688C218.346 30.4219 218.794 30.6484 219.383 30.6484Z" fill="#F4EDE8"/>
<path d="M42 25H32" stroke="#999591" stroke-width="1.5" stroke-linecap="round" stroke-linejoin="round"/>
<path d="M37 30L32 25L37 20" stroke="#999591" stroke-width="1.5" stroke-linecap="round" stroke-linejoin="round"/>
<path d="M321 25L331 25" stroke="#999591" stroke-width="1.5" stroke-linecap="round" stroke-linejoin="round"/>
<path d="M326 20L331 25L326 30" stroke="#999591" stroke-width="1.5" stroke-linecap="round" stroke-linejoin="round"/>
<path d="M39.6719 178.875L39.5234 177.992H36.125L35.7578 181.188C35.9922 181.01 36.2552 180.865 36.5469 180.75C36.8438 180.63 37.1849 180.565 37.5703 180.555C38.6172 180.544 39.4401 180.885 40.0391 181.578C40.6432 182.271 40.9453 183.203 40.9453 184.375C40.9453 185.516 40.638 186.432 40.0234 187.125C39.4141 187.818 38.5234 188.164 37.3516 188.164C36.388 188.164 35.5859 187.901 34.9453 187.375C34.3099 186.849 34.0052 186.076 34.0312 185.055L34.0469 185.008H35.4375C35.4375 185.622 35.6146 186.102 35.9688 186.445C36.3281 186.789 36.7891 186.961 37.3516 186.961C38.0026 186.961 38.5078 186.732 38.8672 186.273C39.2266 185.815 39.4062 185.188 39.4062 184.391C39.4062 183.656 39.224 183.057 38.8594 182.594C38.5 182.125 38 181.891 37.3594 181.891C36.7552 181.891 36.3151 181.982 36.0391 182.164C35.7682 182.346 35.5703 182.625 35.4453 183L34.1641 182.867L34.8203 176.625H40.8281V178.875H39.6719Z" fill="#666360"/>
<path d="M30.2266 235.016L31.9844 234.797V226.273L30.1953 226.305V225.344L33.5234 224.625V234.797L35.2734 235.016V236H30.2266V235.016ZM36.6328 236V234.945L40.3594 230.805C41.026 230.06 41.4766 229.469 41.7109 229.031C41.9505 228.594 42.0703 228.146 42.0703 227.688C42.0703 227.12 41.9036 226.643 41.5703 226.258C41.237 225.867 40.7969 225.672 40.25 225.672C39.4635 225.672 38.8854 225.872 38.5156 226.273C38.1458 226.674 37.9609 227.242 37.9609 227.977H36.4844L36.4688 227.93C36.4427 226.951 36.7656 226.128 37.4375 225.461C38.1146 224.794 39.0521 224.461 40.25 224.461C41.276 224.461 42.0911 224.76 42.6953 225.359C43.3047 225.953 43.6094 226.711 43.6094 227.633C43.6094 228.253 43.4245 228.872 43.0547 229.492C42.6901 230.112 42.1745 230.781 41.5078 231.5L38.5156 234.758L38.5312 234.797H42.5703L42.6953 233.492H44V236H36.6328Z" fill="#666360"/>
<path d="M30.1406 283.016L31.8984 282.797V274.273L30.1094 274.305V273.344L33.4375 272.625V282.797L35.1875 283.016V284H30.1406V283.016ZM39.7812 282.961C40.5208 282.961 41.1042 282.68 41.5312 282.117C41.9635 281.549 42.1875 280.638 42.2031 279.383L42.1719 279.344C41.9635 279.693 41.6719 279.961 41.2969 280.148C40.9219 280.336 40.5 280.43 40.0312 280.43C38.9219 280.43 38.0469 280.089 37.4062 279.406C36.7656 278.719 36.4453 277.755 36.4453 276.516C36.4453 275.328 36.7865 274.357 37.4688 273.602C38.1562 272.841 38.9896 272.461 39.9688 272.461C41.1562 272.461 42.0911 272.833 42.7734 273.578C43.4609 274.318 43.8047 275.414 43.8047 276.867V278.922C43.8047 280.698 43.4375 282.016 42.7031 282.875C41.974 283.734 41 284.164 39.7812 284.164C39.3854 284.164 38.9792 284.125 38.5625 284.047C38.151 283.974 37.7812 283.859 37.4531 283.703L37.6875 282.539C38.0052 282.69 38.3281 282.799 38.6562 282.867C38.9896 282.93 39.3646 282.961 39.7812 282.961ZM40.0312 279.219C40.599 279.219 41.0703 279.096 41.4453 278.852C41.8255 278.607 42.099 278.294 42.2656 277.914V276.711C42.2656 275.706 42.0729 274.948 41.6875 274.438C41.3073 273.927 40.75 273.672 40.0156 273.672C39.4479 273.672 38.9661 273.938 38.5703 274.469C38.1797 275 37.9844 275.682 37.9844 276.516C37.9844 277.333 38.1667 277.99 38.5312 278.484C38.8958 278.974 39.3958 279.219 40.0312 279.219Z" fill="#666360"/>
<path d="M28.8672 332V330.945L32.5938 326.805C33.2604 326.06 33.7109 325.469 33.9453 325.031C34.1849 324.594 34.3047 324.146 34.3047 323.688C34.3047 323.12 34.138 322.643 33.8047 322.258C33.4714 321.867 33.0312 321.672 32.4844 321.672C31.6979 321.672 31.1198 321.872 30.75 322.273C30.3802 322.674 30.1953 323.242 30.1953 323.977H28.7188L28.7031 323.93C28.6771 322.951 29 322.128 29.6719 321.461C30.349 320.794 31.2865 320.461 32.4844 320.461C33.5104 320.461 34.3255 320.76 34.9297 321.359C35.5391 321.953 35.8438 322.711 35.8438 323.633C35.8438 324.253 35.6589 324.872 35.2891 325.492C34.9245 326.112 34.4089 326.781 33.7422 327.5L30.75 330.758L30.7656 330.797H34.8047L34.9297 329.492H36.2344V332H28.8672ZM42.1406 320.461C42.526 320.461 42.9089 320.505 43.2891 320.594C43.6745 320.682 43.9922 320.794 44.2422 320.93L43.9453 322.078C43.7005 321.958 43.4323 321.862 43.1406 321.789C42.849 321.711 42.5156 321.672 42.1406 321.672C41.3438 321.672 40.7083 321.974 40.2344 322.578C39.7656 323.177 39.5156 324.083 39.4844 325.297L39.5156 325.328C39.8073 325.057 40.1641 324.844 40.5859 324.688C41.0078 324.526 41.4635 324.445 41.9531 324.445C42.9688 324.445 43.7786 324.797 44.3828 325.5C44.987 326.203 45.2891 327.094 45.2891 328.172C45.2891 329.349 44.9661 330.31 44.3203 331.055C43.6797 331.794 42.8229 332.164 41.75 332.164C40.6406 332.164 39.7214 331.76 38.9922 330.953C38.263 330.146 37.8984 329.003 37.8984 327.523V325.992C37.8984 324.19 38.2943 322.818 39.0859 321.875C39.8776 320.932 40.8958 320.461 42.1406 320.461ZM41.6172 325.594C41.0911 325.594 40.6432 325.701 40.2734 325.914C39.9036 326.122 39.6224 326.404 39.4297 326.758V327.672C39.4297 328.729 39.6484 329.542 40.0859 330.109C40.5286 330.677 41.0833 330.961 41.75 330.961C42.3802 330.961 42.8698 330.695 43.2188 330.164C43.5729 329.628 43.75 328.964 43.75 328.172C43.75 327.422 43.5599 326.805 43.1797 326.32C42.8047 325.836 42.2839 325.594 41.6172 325.594Z" fill="#666360"/>
<path d="M113 172C113 166.477 117.477 162 123 162H143C148.523 162 153 166.477 153 172V192C153 197.523 148.523 202 143 202H123C117.477 202 113 197.523 113 192V172Z" fill="#3E3B47"/>
<path d="M137.375 177.836C136 179.471 135.07 180.922 134.586 182.188C134.107 183.448 133.76 184.977 133.547 186.773L133.422 188H131.883L132.008 186.773C132.227 184.982 132.651 183.38 133.281 181.969C133.911 180.557 134.773 179.18 135.867 177.836H131.117L131 179.141H129.688V176.625H137.375V177.836Z" fill="#F4EDE8"/>
<path d="M113 220C113 214.477 117.477 210 123 210H143C148.523 210 153 214.477 153 220V240C153 245.523 148.523 250 143 250H123C117.477 250 113 245.523 113 240V220Z" fill="#3E3B47"/>
<path d="M126.008 235.016L127.766 234.797V226.273L125.977 226.305V225.344L129.305 224.625V234.797L131.055 235.016V236H126.008V235.016ZM138.789 232.172H140.359V233.375H138.789V234.797L140.062 235.016V236H135.984V235.016L137.258 234.797V233.375H132.148V232.508L137.164 224.625H138.789V232.172ZM133.789 232.172H137.258V226.82L137.211 226.805L137.055 227.219L133.789 232.172Z" fill="#F4EDE8"/>
<path d="M126.039 284V282.945L129.766 278.805C130.432 278.06 130.883 277.469 131.117 277.031C131.357 276.594 131.477 276.146 131.477 275.688C131.477 275.12 131.31 274.643 130.977 274.258C130.643 273.867 130.203 273.672 129.656 273.672C128.87 273.672 128.292 273.872 127.922 274.273C127.552 274.674 127.367 275.242 127.367 275.977H125.891L125.875 275.93C125.849 274.951 126.172 274.128 126.844 273.461C127.521 272.794 128.458 272.461 129.656 272.461C130.682 272.461 131.497 272.76 132.102 273.359C132.711 273.953 133.016 274.711 133.016 275.633C133.016 276.253 132.831 276.872 132.461 277.492C132.096 278.112 131.581 278.781 130.914 279.5L127.922 282.758L127.938 282.797H131.977L132.102 281.492H133.406V284H126.039ZM135.07 283.016L136.828 282.797V274.273L135.039 274.305V273.344L138.367 272.625V282.797L140.117 283.016V284H135.07V283.016Z" fill="#666360"/>
<path d="M113 316C113 310.477 117.477 306 123 306H143C148.523 306 153 310.477 153 316V336C153 341.523 148.523 346 143 346H123C117.477 346 113 341.523 113 336V316Z" fill="#3E3B47"/>
<path d="M124.914 332V330.945L128.641 326.805C129.307 326.06 129.758 325.469 129.992 325.031C130.232 324.594 130.352 324.146 130.352 323.688C130.352 323.12 130.185 322.643 129.852 322.258C129.518 321.867 129.078 321.672 128.531 321.672C127.745 321.672 127.167 321.872 126.797 322.273C126.427 322.674 126.242 323.242 126.242 323.977H124.766L124.75 323.93C124.724 322.951 125.047 322.128 125.719 321.461C126.396 320.794 127.333 320.461 128.531 320.461C129.557 320.461 130.372 320.76 130.977 321.359C131.586 321.953 131.891 322.711 131.891 323.633C131.891 324.253 131.706 324.872 131.336 325.492C130.971 326.112 130.456 326.781 129.789 327.5L126.797 330.758L126.812 330.797H130.852L130.977 329.492H132.281V332H124.914ZM140.805 323.594C140.805 324.188 140.638 324.708 140.305 325.156C139.971 325.599 139.521 325.93 138.953 326.148C139.609 326.378 140.133 326.737 140.523 327.227C140.919 327.716 141.117 328.281 141.117 328.922C141.117 329.974 140.773 330.779 140.086 331.336C139.404 331.888 138.516 332.164 137.422 332.164C136.307 332.164 135.411 331.888 134.734 331.336C134.057 330.779 133.719 329.974 133.719 328.922C133.719 328.281 133.911 327.716 134.297 327.227C134.682 326.737 135.203 326.378 135.859 326.148C135.292 325.93 134.846 325.599 134.523 325.156C134.201 324.708 134.039 324.188 134.039 323.594C134.039 322.594 134.346 321.823 134.961 321.281C135.581 320.734 136.396 320.461 137.406 320.461C138.406 320.461 139.221 320.734 139.852 321.281C140.487 321.823 140.805 322.594 140.805 323.594ZM139.586 328.891C139.586 328.266 139.38 327.753 138.969 327.352C138.557 326.951 138.036 326.75 137.406 326.75C136.771 326.75 136.253 326.951 135.852 327.352C135.456 327.747 135.258 328.26 135.258 328.891C135.258 329.536 135.453 330.044 135.844 330.414C136.24 330.779 136.766 330.961 137.422 330.961C138.062 330.961 138.583 330.776 138.984 330.406C139.385 330.036 139.586 329.531 139.586 328.891ZM139.266 323.625C139.266 323.062 139.089 322.596 138.734 322.227C138.385 321.857 137.943 321.672 137.406 321.672C136.859 321.672 136.417 321.852 136.078 322.211C135.745 322.565 135.578 323.036 135.578 323.625C135.578 324.203 135.747 324.667 136.086 325.016C136.424 325.365 136.87 325.539 137.422 325.539C137.964 325.539 138.406 325.365 138.75 325.016C139.094 324.667 139.266 324.203 139.266 323.625Z" fill="#F4EDE8"/>
<path d="M228.484 186.961C229.224 186.961 229.807 186.68 230.234 186.117C230.667 185.549 230.891 184.638 230.906 183.383L230.875 183.344C230.667 183.693 230.375 183.961 230 184.148C229.625 184.336 229.203 184.43 228.734 184.43C227.625 184.43 226.75 184.089 226.109 183.406C225.469 182.719 225.148 181.755 225.148 180.516C225.148 179.328 225.49 178.357 226.172 177.602C226.859 176.841 227.693 176.461 228.672 176.461C229.859 176.461 230.794 176.833 231.477 177.578C232.164 178.318 232.508 179.414 232.508 180.867V182.922C232.508 184.698 232.141 186.016 231.406 186.875C230.677 187.734 229.703 188.164 228.484 188.164C228.089 188.164 227.682 188.125 227.266 188.047C226.854 187.974 226.484 187.859 226.156 187.703L226.391 186.539C226.708 186.69 227.031 186.799 227.359 186.867C227.693 186.93 228.068 186.961 228.484 186.961ZM228.734 183.219C229.302 183.219 229.773 183.096 230.148 182.852C230.529 182.607 230.802 182.294 230.969 181.914V180.711C230.969 179.706 230.776 178.948 230.391 178.438C230.01 177.927 229.453 177.672 228.719 177.672C228.151 177.672 227.669 177.938 227.273 178.469C226.883 179 226.688 179.682 226.688 180.516C226.688 181.333 226.87 181.99 227.234 182.484C227.599 182.974 228.099 183.219 228.734 183.219Z" fill="#666360"/>
<path d="M209 220C209 214.477 213.477 210 219 210H239C244.523 210 249 214.477 249 220V240C249 245.523 244.523 250 239 250H219C213.477 250 209 245.523 209 240V220Z" fill="#3E3B47"/>
<path d="M222.18 235.016L223.938 234.797V226.273L222.148 226.305V225.344L225.477 224.625V234.797L227.227 235.016V236H222.18V235.016ZM233.016 224.461C233.401 224.461 233.784 224.505 234.164 224.594C234.549 224.682 234.867 224.794 235.117 224.93L234.82 226.078C234.576 225.958 234.307 225.862 234.016 225.789C233.724 225.711 233.391 225.672 233.016 225.672C232.219 225.672 231.583 225.974 231.109 226.578C230.641 227.177 230.391 228.083 230.359 229.297L230.391 229.328C230.682 229.057 231.039 228.844 231.461 228.688C231.883 228.526 232.339 228.445 232.828 228.445C233.844 228.445 234.654 228.797 235.258 229.5C235.862 230.203 236.164 231.094 236.164 232.172C236.164 233.349 235.841 234.31 235.195 235.055C234.555 235.794 233.698 236.164 232.625 236.164C231.516 236.164 230.596 235.76 229.867 234.953C229.138 234.146 228.773 233.003 228.773 231.523V229.992C228.773 228.19 229.169 226.818 229.961 225.875C230.753 224.932 231.771 224.461 233.016 224.461ZM232.492 229.594C231.966 229.594 231.518 229.701 231.148 229.914C230.779 230.122 230.497 230.404 230.305 230.758V231.672C230.305 232.729 230.523 233.542 230.961 234.109C231.404 234.677 231.958 234.961 232.625 234.961C233.255 234.961 233.745 234.695 234.094 234.164C234.448 233.628 234.625 232.964 234.625 232.172C234.625 231.422 234.435 230.805 234.055 230.32C233.68 229.836 233.159 229.594 232.492 229.594Z" fill="#F4EDE8"/>
<path d="M221.016 284V282.945L224.742 278.805C225.409 278.06 225.859 277.469 226.094 277.031C226.333 276.594 226.453 276.146 226.453 275.688C226.453 275.12 226.286 274.643 225.953 274.258C225.62 273.867 225.18 273.672 224.633 273.672C223.846 273.672 223.268 273.872 222.898 274.273C222.529 274.674 222.344 275.242 222.344 275.977H220.867L220.852 275.93C220.826 274.951 221.148 274.128 221.82 273.461C222.497 272.794 223.435 272.461 224.633 272.461C225.659 272.461 226.474 272.76 227.078 273.359C227.688 273.953 227.992 274.711 227.992 275.633C227.992 276.253 227.807 276.872 227.438 277.492C227.073 278.112 226.557 278.781 225.891 279.5L222.898 282.758L222.914 282.797H226.953L227.078 281.492H228.383V284H221.016ZM231.938 277.602H233.281C233.964 277.602 234.445 277.432 234.727 277.094C235.013 276.75 235.156 276.273 235.156 275.664C235.156 275.013 234.995 274.518 234.672 274.18C234.349 273.841 233.872 273.672 233.242 273.672C232.643 273.672 232.161 273.849 231.797 274.203C231.438 274.552 231.258 275.018 231.258 275.602H229.781L229.766 275.555C229.74 274.695 230.049 273.966 230.695 273.367C231.346 272.763 232.195 272.461 233.242 272.461C234.294 272.461 235.133 272.742 235.758 273.305C236.383 273.862 236.695 274.659 236.695 275.695C236.695 276.164 236.552 276.633 236.266 277.102C235.984 277.565 235.56 277.919 234.992 278.164C235.674 278.388 236.156 278.74 236.438 279.219C236.724 279.698 236.867 280.234 236.867 280.828C236.867 281.865 236.526 282.68 235.844 283.273C235.167 283.867 234.299 284.164 233.242 284.164C232.201 284.164 231.341 283.885 230.664 283.328C229.987 282.766 229.661 282.005 229.688 281.047L229.711 281H231.18C231.18 281.599 231.362 282.076 231.727 282.43C232.096 282.784 232.602 282.961 233.242 282.961C233.893 282.961 234.404 282.784 234.773 282.43C235.143 282.076 235.328 281.552 235.328 280.859C235.328 280.156 235.164 279.638 234.836 279.305C234.508 278.971 233.99 278.805 233.281 278.805H231.938V277.602Z" fill="#666360"/>
<path d="M209 316C209 310.477 213.477 306 219 306H239C244.523 306 249 310.477 249 316V336C249 341.523 244.523 346 239 346H219C213.477 346 209 341.523 209 336V316Z" fill="#3E3B47"/>
<path d="M222.953 325.602H224.297C224.979 325.602 225.461 325.432 225.742 325.094C226.029 324.75 226.172 324.273 226.172 323.664C226.172 323.013 226.01 322.518 225.688 322.18C225.365 321.841 224.888 321.672 224.258 321.672C223.659 321.672 223.177 321.849 222.812 322.203C222.453 322.552 222.273 323.018 222.273 323.602H220.797L220.781 323.555C220.755 322.695 221.065 321.966 221.711 321.367C222.362 320.763 223.211 320.461 224.258 320.461C225.31 320.461 226.148 320.742 226.773 321.305C227.398 321.862 227.711 322.659 227.711 323.695C227.711 324.164 227.568 324.633 227.281 325.102C227 325.565 226.576 325.919 226.008 326.164C226.69 326.388 227.172 326.74 227.453 327.219C227.74 327.698 227.883 328.234 227.883 328.828C227.883 329.865 227.542 330.68 226.859 331.273C226.182 331.867 225.315 332.164 224.258 332.164C223.216 332.164 222.357 331.885 221.68 331.328C221.003 330.766 220.677 330.005 220.703 329.047L220.727 329H222.195C222.195 329.599 222.378 330.076 222.742 330.43C223.112 330.784 223.617 330.961 224.258 330.961C224.909 330.961 225.419 330.784 225.789 330.43C226.159 330.076 226.344 329.552 226.344 328.859C226.344 328.156 226.18 327.638 225.852 327.305C225.523 326.971 225.005 326.805 224.297 326.805H222.953V325.602ZM236.945 327.664C236.945 329.117 236.622 330.232 235.977 331.008C235.331 331.779 234.448 332.164 233.328 332.164C232.214 332.164 231.331 331.776 230.68 331C230.029 330.224 229.703 329.112 229.703 327.664V324.969C229.703 323.521 230.026 322.409 230.672 321.633C231.318 320.852 232.198 320.461 233.312 320.461C234.432 320.461 235.318 320.852 235.969 321.633C236.62 322.409 236.945 323.521 236.945 324.969V327.664ZM235.406 324.641C235.406 323.656 235.227 322.917 234.867 322.422C234.513 321.922 233.995 321.672 233.312 321.672C232.641 321.672 232.128 321.922 231.773 322.422C231.419 322.917 231.242 323.656 231.242 324.641V327.977C231.242 328.961 231.422 329.706 231.781 330.211C232.141 330.711 232.656 330.961 233.328 330.961C234.01 330.961 234.526 330.711 234.875 330.211C235.229 329.711 235.406 328.966 235.406 327.977V324.641Z" fill="#F4EDE8"/>
<path d="M209 124C209 118.477 213.477 114 219 114H239C244.523 114 249 118.477 249 124V144C249 149.523 244.523 154 239 154H219C213.477 154 209 149.523 209 144V124Z" fill="#3E3B47"/>
<path d="M225.836 140V138.945L229.562 134.805C230.229 134.06 230.68 133.469 230.914 133.031C231.154 132.594 231.273 132.146 231.273 131.688C231.273 131.12 231.107 130.643 230.773 130.258C230.44 129.867 230 129.672 229.453 129.672C228.667 129.672 228.089 129.872 227.719 130.273C227.349 130.674 227.164 131.242 227.164 131.977H225.688L225.672 131.93C225.646 130.951 225.969 130.128 226.641 129.461C227.318 128.794 228.255 128.461 229.453 128.461C230.479 128.461 231.294 128.76 231.898 129.359C232.508 129.953 232.812 130.711 232.812 131.633C232.812 132.253 232.628 132.872 232.258 133.492C231.893 134.112 231.378 134.781 230.711 135.5L227.719 138.758L227.734 138.797H231.773L231.898 137.492H233.203V140H225.836Z" fill="#F4EDE8"/>
<path d="M65 172C65 166.477 69.4772 162 75 162H95C100.523 162 105 166.477 105 172V192C105 197.523 100.523 202 95 202H75C69.4772 202 65 197.523 65 192V172Z" fill="#3399FF"/>
<path d="M86.2188 176.461C86.6042 176.461 86.987 176.505 87.3672 176.594C87.7526 176.682 88.0703 176.794 88.3203 176.93L88.0234 178.078C87.7786 177.958 87.5104 177.862 87.2188 177.789C86.9271 177.711 86.5938 177.672 86.2188 177.672C85.4219 177.672 84.7865 177.974 84.3125 178.578C83.8438 179.177 83.5938 180.083 83.5625 181.297L83.5938 181.328C83.8854 181.057 84.2422 180.844 84.6641 180.688C85.0859 180.526 85.5417 180.445 86.0312 180.445C87.0469 180.445 87.8568 180.797 88.4609 181.5C89.0651 182.203 89.3672 183.094 89.3672 184.172C89.3672 185.349 89.0443 186.31 88.3984 187.055C87.7578 187.794 86.901 188.164 85.8281 188.164C84.7188 188.164 83.7995 187.76 83.0703 186.953C82.3411 186.146 81.9766 185.003 81.9766 183.523V181.992C81.9766 180.19 82.3724 178.818 83.1641 177.875C83.9557 176.932 84.974 176.461 86.2188 176.461ZM85.6953 181.594C85.1693 181.594 84.7214 181.701 84.3516 181.914C83.9818 182.122 83.7005 182.404 83.5078 182.758V183.672C83.5078 184.729 83.7266 185.542 84.1641 186.109C84.6068 186.677 85.1615 186.961 85.8281 186.961C86.4583 186.961 86.9479 186.695 87.2969 186.164C87.651 185.628 87.8281 184.964 87.8281 184.172C87.8281 183.422 87.638 182.805 87.2578 182.32C86.8828 181.836 86.362 181.594 85.6953 181.594Z" fill="#232129"/>
<path d="M65 220C65 214.477 69.4772 210 75 210H95C100.523 210 105 214.477 105 220V240C105 245.523 100.523 250 95 250H75C69.4772 250 65 245.523 65 240V220Z" fill="#3E3B47"/>
<path d="M78.3281 235.016L80.0859 234.797V226.273L78.2969 226.305V225.344L81.625 224.625V234.797L83.375 235.016V236H78.3281V235.016ZM86.8125 229.602H88.1562C88.8385 229.602 89.3203 229.432 89.6016 229.094C89.888 228.75 90.0312 228.273 90.0312 227.664C90.0312 227.013 89.8698 226.518 89.5469 226.18C89.224 225.841 88.7474 225.672 88.1172 225.672C87.5182 225.672 87.0365 225.849 86.6719 226.203C86.3125 226.552 86.1328 227.018 86.1328 227.602H84.6562L84.6406 227.555C84.6146 226.695 84.9245 225.966 85.5703 225.367C86.2214 224.763 87.0703 224.461 88.1172 224.461C89.1693 224.461 90.0078 224.742 90.6328 225.305C91.2578 225.862 91.5703 226.659 91.5703 227.695C91.5703 228.164 91.4271 228.633 91.1406 229.102C90.8594 229.565 90.4349 229.919 89.8672 230.164C90.5495 230.388 91.0312 230.74 91.3125 231.219C91.599 231.698 91.7422 232.234 91.7422 232.828C91.7422 233.865 91.401 234.68 90.7188 235.273C90.0417 235.867 89.1745 236.164 88.1172 236.164C87.0755 236.164 86.2161 235.885 85.5391 235.328C84.862 234.766 84.5365 234.005 84.5625 233.047L84.5859 233H86.0547C86.0547 233.599 86.237 234.076 86.6016 234.43C86.9714 234.784 87.4766 234.961 88.1172 234.961C88.7682 234.961 89.2786 234.784 89.6484 234.43C90.0182 234.076 90.2031 233.552 90.2031 232.859C90.2031 232.156 90.0391 231.638 89.7109 231.305C89.3828 230.971 88.8646 230.805 88.1562 230.805H86.8125V229.602Z" fill="#F4EDE8"/>
<path d="M76.7734 284V282.945L80.5 278.805C81.1667 278.06 81.6172 277.469 81.8516 277.031C82.0911 276.594 82.2109 276.146 82.2109 275.688C82.2109 275.12 82.0443 274.643 81.7109 274.258C81.3776 273.867 80.9375 273.672 80.3906 273.672C79.6042 273.672 79.026 273.872 78.6562 274.273C78.2865 274.674 78.1016 275.242 78.1016 275.977H76.625L76.6094 275.93C76.5833 274.951 76.9062 274.128 77.5781 273.461C78.2552 272.794 79.1927 272.461 80.3906 272.461C81.4167 272.461 82.2318 272.76 82.8359 273.359C83.4453 273.953 83.75 274.711 83.75 275.633C83.75 276.253 83.5651 276.872 83.1953 277.492C82.8307 278.112 82.3151 278.781 81.6484 279.5L78.6562 282.758L78.6719 282.797H82.7109L82.8359 281.492H84.1406V284H76.7734ZM93.0469 279.664C93.0469 281.117 92.724 282.232 92.0781 283.008C91.4323 283.779 90.5495 284.164 89.4297 284.164C88.3151 284.164 87.4323 283.776 86.7812 283C86.1302 282.224 85.8047 281.112 85.8047 279.664V276.969C85.8047 275.521 86.1276 274.409 86.7734 273.633C87.4193 272.852 88.2995 272.461 89.4141 272.461C90.5339 272.461 91.4193 272.852 92.0703 273.633C92.7214 274.409 93.0469 275.521 93.0469 276.969V279.664ZM91.5078 276.641C91.5078 275.656 91.3281 274.917 90.9688 274.422C90.6146 273.922 90.0964 273.672 89.4141 273.672C88.7422 273.672 88.2292 273.922 87.875 274.422C87.5208 274.917 87.3438 275.656 87.3438 276.641V279.977C87.3438 280.961 87.5234 281.706 87.8828 282.211C88.2422 282.711 88.7578 282.961 89.4297 282.961C90.112 282.961 90.6276 282.711 90.9766 282.211C91.3307 281.711 91.5078 280.966 91.5078 279.977V276.641Z" fill="#666360"/>
<path d="M65 316C65 310.477 69.4772 306 75 306H95C100.523 306 105 310.477 105 316V336C105 341.523 100.523 346 95 346H75C69.4772 346 65 341.523 65 336V316Z" fill="#3E3B47"/>
<path d="M76.9297 332V330.945L80.6562 326.805C81.3229 326.06 81.7734 325.469 82.0078 325.031C82.2474 324.594 82.3672 324.146 82.3672 323.688C82.3672 323.12 82.2005 322.643 81.8672 322.258C81.5339 321.867 81.0938 321.672 80.5469 321.672C79.7604 321.672 79.1823 321.872 78.8125 322.273C78.4427 322.674 78.2578 323.242 78.2578 323.977H76.7812L76.7656 323.93C76.7396 322.951 77.0625 322.128 77.7344 321.461C78.4115 320.794 79.349 320.461 80.5469 320.461C81.5729 320.461 82.388 320.76 82.9922 321.359C83.6016 321.953 83.9062 322.711 83.9062 323.633C83.9062 324.253 83.7214 324.872 83.3516 325.492C82.987 326.112 82.4714 326.781 81.8047 327.5L78.8125 330.758L78.8281 330.797H82.8672L82.9922 329.492H84.2969V332H76.9297ZM93.2969 321.836C91.9219 323.471 90.9922 324.922 90.5078 326.188C90.0286 327.448 89.6823 328.977 89.4688 330.773L89.3438 332H87.8047L87.9297 330.773C88.1484 328.982 88.5729 327.38 89.2031 325.969C89.8333 324.557 90.6953 323.18 91.7891 321.836H87.0391L86.9219 323.141H85.6094V320.625H93.2969V321.836Z" fill="#F4EDE8"/>
<path d="M161 172C161 166.477 165.477 162 171 162H191C196.523 162 201 166.477 201 172V192C201 197.523 196.523 202 191 202H171C165.477 202 161 197.523 161 192V172Z" fill="#3E3B47"/>
<path d="M184.883 179.594C184.883 180.188 184.716 180.708 184.383 181.156C184.049 181.599 183.599 181.93 183.031 182.148C183.688 182.378 184.211 182.737 184.602 183.227C184.997 183.716 185.195 184.281 185.195 184.922C185.195 185.974 184.852 186.779 184.164 187.336C183.482 187.888 182.594 188.164 181.5 188.164C180.385 188.164 179.49 187.888 178.812 187.336C178.135 186.779 177.797 185.974 177.797 184.922C177.797 184.281 177.99 183.716 178.375 183.227C178.76 182.737 179.281 182.378 179.938 182.148C179.37 181.93 178.924 181.599 178.602 181.156C178.279 180.708 178.117 180.188 178.117 179.594C178.117 178.594 178.424 177.823 179.039 177.281C179.659 176.734 180.474 176.461 181.484 176.461C182.484 176.461 183.299 176.734 183.93 177.281C184.565 177.823 184.883 178.594 184.883 179.594ZM183.664 184.891C183.664 184.266 183.458 183.753 183.047 183.352C182.635 182.951 182.115 182.75 181.484 182.75C180.849 182.75 180.331 182.951 179.93 183.352C179.534 183.747 179.336 184.26 179.336 184.891C179.336 185.536 179.531 186.044 179.922 186.414C180.318 186.779 180.844 186.961 181.5 186.961C182.141 186.961 182.661 186.776 183.062 186.406C183.464 186.036 183.664 185.531 183.664 184.891ZM183.344 179.625C183.344 179.062 183.167 178.596 182.812 178.227C182.464 177.857 182.021 177.672 181.484 177.672C180.938 177.672 180.495 177.852 180.156 178.211C179.823 178.565 179.656 179.036 179.656 179.625C179.656 180.203 179.826 180.667 180.164 181.016C180.503 181.365 180.948 181.539 181.5 181.539C182.042 181.539 182.484 181.365 182.828 181.016C183.172 180.667 183.344 180.203 183.344 179.625Z" fill="#F4EDE8"/>
<path d="M161 220C161 214.477 165.477 210 171 210H191C196.523 210 201 214.477 201 220V240C201 245.523 196.523 250 191 250H171C165.477 250 161 245.523 161 240V220Z" fill="#3E3B47"/>
<path d="M174.422 235.016L176.18 234.797V226.273L174.391 226.305V225.344L177.719 224.625V234.797L179.469 235.016V236H174.422V235.016ZM186.469 226.875L186.32 225.992H182.922L182.555 229.188C182.789 229.01 183.052 228.865 183.344 228.75C183.641 228.63 183.982 228.565 184.367 228.555C185.414 228.544 186.237 228.885 186.836 229.578C187.44 230.271 187.742 231.203 187.742 232.375C187.742 233.516 187.435 234.432 186.82 235.125C186.211 235.818 185.32 236.164 184.148 236.164C183.185 236.164 182.383 235.901 181.742 235.375C181.107 234.849 180.802 234.076 180.828 233.055L180.844 233.008H182.234C182.234 233.622 182.411 234.102 182.766 234.445C183.125 234.789 183.586 234.961 184.148 234.961C184.799 234.961 185.305 234.732 185.664 234.273C186.023 233.815 186.203 233.188 186.203 232.391C186.203 231.656 186.021 231.057 185.656 230.594C185.297 230.125 184.797 229.891 184.156 229.891C183.552 229.891 183.112 229.982 182.836 230.164C182.565 230.346 182.367 230.625 182.242 231L180.961 230.867L181.617 224.625H187.625V226.875H186.469Z" fill="#F4EDE8"/>
<path d="M161 268C161 262.477 165.477 258 171 258H191C196.523 258 201 262.477 201 268V288C201 293.523 196.523 298 191 298H171C165.477 298 161 293.523 161 288V268Z" fill="#3E3B47"/>
<path d="M172.914 284V282.945L176.641 278.805C177.307 278.06 177.758 277.469 177.992 277.031C178.232 276.594 178.352 276.146 178.352 275.688C178.352 275.12 178.185 274.643 177.852 274.258C177.518 273.867 177.078 273.672 176.531 273.672C175.745 273.672 175.167 273.872 174.797 274.273C174.427 274.674 174.242 275.242 174.242 275.977H172.766L172.75 275.93C172.724 274.951 173.047 274.128 173.719 273.461C174.396 272.794 175.333 272.461 176.531 272.461C177.557 272.461 178.372 272.76 178.977 273.359C179.586 273.953 179.891 274.711 179.891 275.633C179.891 276.253 179.706 276.872 179.336 277.492C178.971 278.112 178.456 278.781 177.789 279.5L174.797 282.758L174.812 282.797H178.852L178.977 281.492H180.281V284H172.914ZM181.758 284V282.945L185.484 278.805C186.151 278.06 186.602 277.469 186.836 277.031C187.076 276.594 187.195 276.146 187.195 275.688C187.195 275.12 187.029 274.643 186.695 274.258C186.362 273.867 185.922 273.672 185.375 273.672C184.589 273.672 184.01 273.872 183.641 274.273C183.271 274.674 183.086 275.242 183.086 275.977H181.609L181.594 275.93C181.568 274.951 181.891 274.128 182.562 273.461C183.24 272.794 184.177 272.461 185.375 272.461C186.401 272.461 187.216 272.76 187.82 273.359C188.43 273.953 188.734 274.711 188.734 275.633C188.734 276.253 188.549 276.872 188.18 277.492C187.815 278.112 187.299 278.781 186.633 279.5L183.641 282.758L183.656 282.797H187.695L187.82 281.492H189.125V284H181.758Z" fill="#F4EDE8"/>
<path d="M161 316C161 310.477 165.477 306 171 306H191C196.523 306 201 310.477 201 316V336C201 341.523 196.523 346 191 346H171C165.477 346 161 341.523 161 336V316Z" fill="#3E3B47"/>
<path d="M172.828 332V330.945L176.555 326.805C177.221 326.06 177.672 325.469 177.906 325.031C178.146 324.594 178.266 324.146 178.266 323.688C178.266 323.12 178.099 322.643 177.766 322.258C177.432 321.867 176.992 321.672 176.445 321.672C175.659 321.672 175.081 321.872 174.711 322.273C174.341 322.674 174.156 323.242 174.156 323.977H172.68L172.664 323.93C172.638 322.951 172.961 322.128 173.633 321.461C174.31 320.794 175.247 320.461 176.445 320.461C177.471 320.461 178.286 320.76 178.891 321.359C179.5 321.953 179.805 322.711 179.805 323.633C179.805 324.253 179.62 324.872 179.25 325.492C178.885 326.112 178.37 326.781 177.703 327.5L174.711 330.758L174.727 330.797H178.766L178.891 329.492H180.195V332H172.828ZM184.906 330.961C185.646 330.961 186.229 330.68 186.656 330.117C187.089 329.549 187.312 328.638 187.328 327.383L187.297 327.344C187.089 327.693 186.797 327.961 186.422 328.148C186.047 328.336 185.625 328.43 185.156 328.43C184.047 328.43 183.172 328.089 182.531 327.406C181.891 326.719 181.57 325.755 181.57 324.516C181.57 323.328 181.911 322.357 182.594 321.602C183.281 320.841 184.115 320.461 185.094 320.461C186.281 320.461 187.216 320.833 187.898 321.578C188.586 322.318 188.93 323.414 188.93 324.867V326.922C188.93 328.698 188.562 330.016 187.828 330.875C187.099 331.734 186.125 332.164 184.906 332.164C184.51 332.164 184.104 332.125 183.688 332.047C183.276 331.974 182.906 331.859 182.578 331.703L182.812 330.539C183.13 330.69 183.453 330.799 183.781 330.867C184.115 330.93 184.49 330.961 184.906 330.961ZM185.156 327.219C185.724 327.219 186.195 327.096 186.57 326.852C186.951 326.607 187.224 326.294 187.391 325.914V324.711C187.391 323.706 187.198 322.948 186.812 322.438C186.432 321.927 185.875 321.672 185.141 321.672C184.573 321.672 184.091 321.938 183.695 322.469C183.305 323 183.109 323.682 183.109 324.516C183.109 325.333 183.292 325.99 183.656 326.484C184.021 326.974 184.521 327.219 185.156 327.219Z" fill="#F4EDE8"/>
<path d="M161 124C161 118.477 165.477 114 171 114H191C196.523 114 201 118.477 201 124V144C201 149.523 196.523 154 191 154H171C165.477 154 161 149.523 161 144V124Z" fill="#3E3B47"/>
<path d="M179.148 139.016L180.906 138.797V130.273L179.117 130.305V129.344L182.445 128.625V138.797L184.195 139.016V140H179.148V139.016Z" fill="#F4EDE8"/>
<path d="M257 172C257 166.477 261.477 162 267 162H287C292.523 162 297 166.477 297 172V192C297 197.523 292.523 202 287 202H267C261.477 202 257 197.523 257 192V172Z" fill="#3E3B47"/>
<path d="M270.086 187.016L271.844 186.797V178.273L270.055 178.305V177.344L273.383 176.625V186.797L275.133 187.016V188H270.086V187.016ZM283.922 183.664C283.922 185.117 283.599 186.232 282.953 187.008C282.307 187.779 281.424 188.164 280.305 188.164C279.19 188.164 278.307 187.776 277.656 187C277.005 186.224 276.68 185.112 276.68 183.664V180.969C276.68 179.521 277.003 178.409 277.648 177.633C278.294 176.852 279.174 176.461 280.289 176.461C281.409 176.461 282.294 176.852 282.945 177.633C283.596 178.409 283.922 179.521 283.922 180.969V183.664ZM282.383 180.641C282.383 179.656 282.203 178.917 281.844 178.422C281.49 177.922 280.971 177.672 280.289 177.672C279.617 177.672 279.104 177.922 278.75 178.422C278.396 178.917 278.219 179.656 278.219 180.641V183.977C278.219 184.961 278.398 185.706 278.758 186.211C279.117 186.711 279.633 186.961 280.305 186.961C280.987 186.961 281.503 186.711 281.852 186.211C282.206 185.711 282.383 184.966 282.383 183.977V180.641Z" fill="#F4EDE8"/>
<path d="M257 220C257 214.477 261.477 210 267 210H287C292.523 210 297 214.477 297 220V240C297 245.523 292.523 250 287 250H267C261.477 250 257 245.523 257 240V220Z" fill="#3E3B47"/>
<path d="M270.242 235.016L272 234.797V226.273L270.211 226.305V225.344L273.539 224.625V234.797L275.289 235.016V236H270.242V235.016ZM284.172 225.836C282.797 227.471 281.867 228.922 281.383 230.188C280.904 231.448 280.557 232.977 280.344 234.773L280.219 236H278.68L278.805 234.773C279.023 232.982 279.448 231.38 280.078 229.969C280.708 228.557 281.57 227.18 282.664 225.836H277.914L277.797 227.141H276.484V224.625H284.172V225.836Z" fill="#F4EDE8"/>
<path d="M257 268C257 262.477 261.477 258 267 258H287C292.523 258 297 262.477 297 268V288C297 293.523 292.523 298 287 298H267C261.477 298 257 293.523 257 288V268Z" fill="#3E3B47"/>
<path d="M269.195 284V282.945L272.922 278.805C273.589 278.06 274.039 277.469 274.273 277.031C274.513 276.594 274.633 276.146 274.633 275.688C274.633 275.12 274.466 274.643 274.133 274.258C273.799 273.867 273.359 273.672 272.812 273.672C272.026 273.672 271.448 273.872 271.078 274.273C270.708 274.674 270.523 275.242 270.523 275.977H269.047L269.031 275.93C269.005 274.951 269.328 274.128 270 273.461C270.677 272.794 271.615 272.461 272.812 272.461C273.839 272.461 274.654 272.76 275.258 273.359C275.867 273.953 276.172 274.711 276.172 275.633C276.172 276.253 275.987 276.872 275.617 277.492C275.253 278.112 274.737 278.781 274.07 279.5L271.078 282.758L271.094 282.797H275.133L275.258 281.492H276.562V284H269.195ZM284.414 280.172H285.984V281.375H284.414V282.797L285.688 283.016V284H281.609V283.016L282.883 282.797V281.375H277.773V280.508L282.789 272.625H284.414V280.172ZM279.414 280.172H282.883V274.82L282.836 274.805L282.68 275.219L279.414 280.172Z" fill="#F4EDE8"/>
<path d="M257 124C257 118.477 261.477 114 267 114H287C292.523 114 297 118.477 297 124V144C297 149.523 292.523 154 287 154H267C261.477 154 257 149.523 257 144V124Z" fill="#3E3B47"/>
<path d="M276.016 133.602H277.359C278.042 133.602 278.523 133.432 278.805 133.094C279.091 132.75 279.234 132.273 279.234 131.664C279.234 131.013 279.073 130.518 278.75 130.18C278.427 129.841 277.951 129.672 277.32 129.672C276.721 129.672 276.24 129.849 275.875 130.203C275.516 130.552 275.336 131.018 275.336 131.602H273.859L273.844 131.555C273.818 130.695 274.128 129.966 274.773 129.367C275.424 128.763 276.273 128.461 277.32 128.461C278.372 128.461 279.211 128.742 279.836 129.305C280.461 129.862 280.773 130.659 280.773 131.695C280.773 132.164 280.63 132.633 280.344 133.102C280.062 133.565 279.638 133.919 279.07 134.164C279.753 134.388 280.234 134.74 280.516 135.219C280.802 135.698 280.945 136.234 280.945 136.828C280.945 137.865 280.604 138.68 279.922 139.273C279.245 139.867 278.378 140.164 277.32 140.164C276.279 140.164 275.419 139.885 274.742 139.328C274.065 138.766 273.74 138.005 273.766 137.047L273.789 137H275.258C275.258 137.599 275.44 138.076 275.805 138.43C276.174 138.784 276.68 138.961 277.32 138.961C277.971 138.961 278.482 138.784 278.852 138.43C279.221 138.076 279.406 137.552 279.406 136.859C279.406 136.156 279.242 135.638 278.914 135.305C278.586 134.971 278.068 134.805 277.359 134.805H276.016V133.602Z" fill="#F4EDE8"/>
<path d="M319.352 187.016L321.109 186.797V178.273L319.32 178.305V177.344L322.648 176.625V186.797L324.398 187.016V188H319.352V187.016ZM325.945 187.016L327.703 186.797V178.273L325.914 178.305V177.344L329.242 176.625V186.797L330.992 187.016V188H325.945V187.016Z" fill="#666360"/>
<path d="M318.227 235.016L319.984 234.797V226.273L318.195 226.305V225.344L321.523 224.625V234.797L323.273 235.016V236H318.227V235.016ZM331.68 227.594C331.68 228.188 331.513 228.708 331.18 229.156C330.846 229.599 330.396 229.93 329.828 230.148C330.484 230.378 331.008 230.737 331.398 231.227C331.794 231.716 331.992 232.281 331.992 232.922C331.992 233.974 331.648 234.779 330.961 235.336C330.279 235.888 329.391 236.164 328.297 236.164C327.182 236.164 326.286 235.888 325.609 235.336C324.932 234.779 324.594 233.974 324.594 232.922C324.594 232.281 324.786 231.716 325.172 231.227C325.557 230.737 326.078 230.378 326.734 230.148C326.167 229.93 325.721 229.599 325.398 229.156C325.076 228.708 324.914 228.188 324.914 227.594C324.914 226.594 325.221 225.823 325.836 225.281C326.456 224.734 327.271 224.461 328.281 224.461C329.281 224.461 330.096 224.734 330.727 225.281C331.362 225.823 331.68 226.594 331.68 227.594ZM330.461 232.891C330.461 232.266 330.255 231.753 329.844 231.352C329.432 230.951 328.911 230.75 328.281 230.75C327.646 230.75 327.128 230.951 326.727 231.352C326.331 231.747 326.133 232.26 326.133 232.891C326.133 233.536 326.328 234.044 326.719 234.414C327.115 234.779 327.641 234.961 328.297 234.961C328.938 234.961 329.458 234.776 329.859 234.406C330.26 234.036 330.461 233.531 330.461 232.891ZM330.141 227.625C330.141 227.062 329.964 226.596 329.609 226.227C329.26 225.857 328.818 225.672 328.281 225.672C327.734 225.672 327.292 225.852 326.953 226.211C326.62 226.565 326.453 227.036 326.453 227.625C326.453 228.203 326.622 228.667 326.961 229.016C327.299 229.365 327.745 229.539 328.297 229.539C328.839 229.539 329.281 229.365 329.625 229.016C329.969 228.667 330.141 228.203 330.141 227.625Z" fill="#666360"/>
<path d="M317.109 284V282.945L320.836 278.805C321.503 278.06 321.953 277.469 322.188 277.031C322.427 276.594 322.547 276.146 322.547 275.688C322.547 275.12 322.38 274.643 322.047 274.258C321.714 273.867 321.273 273.672 320.727 273.672C319.94 273.672 319.362 273.872 318.992 274.273C318.622 274.674 318.438 275.242 318.438 275.977H316.961L316.945 275.93C316.919 274.951 317.242 274.128 317.914 273.461C318.591 272.794 319.529 272.461 320.727 272.461C321.753 272.461 322.568 272.76 323.172 273.359C323.781 273.953 324.086 274.711 324.086 275.633C324.086 276.253 323.901 276.872 323.531 277.492C323.167 278.112 322.651 278.781 321.984 279.5L318.992 282.758L319.008 282.797H323.047L323.172 281.492H324.477V284H317.109ZM331.594 274.875L331.445 273.992H328.047L327.68 277.188C327.914 277.01 328.177 276.865 328.469 276.75C328.766 276.63 329.107 276.565 329.492 276.555C330.539 276.544 331.362 276.885 331.961 277.578C332.565 278.271 332.867 279.203 332.867 280.375C332.867 281.516 332.56 282.432 331.945 283.125C331.336 283.818 330.445 284.164 329.273 284.164C328.31 284.164 327.508 283.901 326.867 283.375C326.232 282.849 325.927 282.076 325.953 281.055L325.969 281.008H327.359C327.359 281.622 327.536 282.102 327.891 282.445C328.25 282.789 328.711 282.961 329.273 282.961C329.924 282.961 330.43 282.732 330.789 282.273C331.148 281.815 331.328 281.188 331.328 280.391C331.328 279.656 331.146 279.057 330.781 278.594C330.422 278.125 329.922 277.891 329.281 277.891C328.677 277.891 328.237 277.982 327.961 278.164C327.69 278.346 327.492 278.625 327.367 279L326.086 278.867L326.742 272.625H332.75V274.875H331.594Z" fill="#666360"/>
<path d="M327.492 136.172H329.062V137.375H327.492V138.797L328.766 139.016V140H324.688V139.016L325.961 138.797V137.375H320.852V136.508L325.867 128.625H327.492V136.172ZM322.492 136.172H325.961V130.82L325.914 130.805L325.758 131.219L322.492 136.172Z" fill="#666360"/>
<path d="M138.227 72.625V75.1406H136.914L136.797 73.8359H134.273V82.7969L135.547 83.0156V84H131.461V83.0156L132.734 82.7969V73.8359H130.203L130.094 75.1406H128.773V72.625H138.227Z" fill="#666360"/>
<path d="M234.039 78.3984C234.039 79.4089 233.852 80.3307 233.477 81.1641C233.102 81.9974 232.578 82.6693 231.906 83.1797L234.211 84.8047L233.156 85.7422L230.57 83.8984C230.31 83.9818 230.042 84.0469 229.766 84.0938C229.49 84.1406 229.208 84.1641 228.922 84.1641C227.453 84.1641 226.26 83.6172 225.344 82.5234C224.427 81.4297 223.969 80.0547 223.969 78.3984V78.2344C223.969 76.5833 224.427 75.2083 225.344 74.1094C226.26 73.0104 227.453 72.4609 228.922 72.4609C230.432 72.4609 231.661 73.0104 232.609 74.1094C233.562 75.2083 234.039 76.5833 234.039 78.2344V78.3984ZM232.5 78.2188C232.5 76.8958 232.182 75.8177 231.547 74.9844C230.917 74.1458 230.042 73.7266 228.922 73.7266C227.849 73.7266 227.01 74.1458 226.406 74.9844C225.807 75.8229 225.508 76.901 225.508 78.2188V78.3984C225.508 79.7318 225.807 80.8177 226.406 81.6562C227.01 82.4896 227.849 82.9062 228.922 82.9062C230.057 82.9062 230.938 82.4896 231.562 81.6562C232.188 80.8229 232.5 79.737 232.5 78.3984V78.2188Z" fill="#666360"/>
<path d="M85.0234 84.1641C84.3307 84.1641 83.6641 84.0625 83.0234 83.8594C82.3828 83.6562 81.7708 83.3438 81.1875 82.9219V80.4922H82.3828L82.6406 82.2812C82.9792 82.4896 83.3464 82.651 83.7422 82.7656C84.138 82.8802 84.5651 82.9375 85.0234 82.9375C85.7995 82.9375 86.401 82.7656 86.8281 82.4219C87.2552 82.0729 87.4688 81.6172 87.4688 81.0547C87.4688 80.5339 87.276 80.1016 86.8906 79.7578C86.5052 79.4141 85.8177 79.1302 84.8281 78.9062C83.651 78.6354 82.7526 78.224 82.1328 77.6719C81.513 77.1146 81.2031 76.4141 81.2031 75.5703C81.2031 74.9766 81.3594 74.4453 81.6719 73.9766C81.9896 73.5078 82.4297 73.138 82.9922 72.8672C83.5547 72.5964 84.2109 72.4609 84.9609 72.4609C85.7578 72.4609 86.4609 72.5833 87.0703 72.8281C87.6849 73.0677 88.1901 73.3594 88.5859 73.7031V75.9766H87.3906L87.1328 74.3516C86.8984 74.1641 86.6068 74.0078 86.2578 73.8828C85.9089 73.7578 85.4766 73.6953 84.9609 73.6953C84.2995 73.6953 83.763 73.8646 83.3516 74.2031C82.9453 74.5417 82.7422 74.9896 82.7422 75.5469C82.7422 76.0365 82.9375 76.4375 83.3281 76.75C83.7188 77.0573 84.3958 77.3307 85.3594 77.5703C86.5573 77.8672 87.4635 78.3073 88.0781 78.8906C88.6979 79.4688 89.0078 80.1849 89.0078 81.0391C89.0078 81.6484 88.8438 82.1901 88.5156 82.6641C88.1875 83.1328 87.724 83.5 87.125 83.7656C86.5312 84.0312 85.8307 84.1641 85.0234 84.1641Z" fill="#3399FF"/>
<path d="M186.039 78.3984C186.039 79.4089 185.852 80.3307 185.477 81.1641C185.102 81.9974 184.578 82.6693 183.906 83.1797L186.211 84.8047L185.156 85.7422L182.57 83.8984C182.31 83.9818 182.042 84.0469 181.766 84.0938C181.49 84.1406 181.208 84.1641 180.922 84.1641C179.453 84.1641 178.26 83.6172 177.344 82.5234C176.427 81.4297 175.969 80.0547 175.969 78.3984V78.2344C175.969 76.5833 176.427 75.2083 177.344 74.1094C178.26 73.0104 179.453 72.4609 180.922 72.4609C182.432 72.4609 183.661 73.0104 184.609 74.1094C185.562 75.2083 186.039 76.5833 186.039 78.2344V78.3984ZM184.5 78.2188C184.5 76.8958 184.182 75.8177 183.547 74.9844C182.917 74.1458 182.042 73.7266 180.922 73.7266C179.849 73.7266 179.01 74.1458 178.406 74.9844C177.807 75.8229 177.508 76.901 177.508 78.2188V78.3984C177.508 79.7318 177.807 80.8177 178.406 81.6562C179.01 82.4896 179.849 82.9062 180.922 82.9062C182.057 82.9062 182.938 82.4896 183.562 81.6562C184.188 80.8229 184.5 79.737 184.5 78.3984V78.2188Z" fill="#666360"/>
<path d="M280.914 75.9844H279.75L279.461 74.3594C279.227 74.1615 278.914 73.9974 278.523 73.8672C278.133 73.737 277.68 73.6719 277.164 73.6719C276.346 73.6719 275.719 73.8464 275.281 74.1953C274.844 74.5391 274.625 74.9896 274.625 75.5469C274.625 76.0417 274.846 76.4557 275.289 76.7891C275.737 77.1172 276.458 77.4062 277.453 77.6562C278.651 77.9531 279.56 78.3906 280.18 78.9688C280.805 79.5469 281.117 80.263 281.117 81.1172C281.117 82.0339 280.742 82.7708 279.992 83.3281C279.247 83.8854 278.271 84.1641 277.062 84.1641C276.188 84.1641 275.409 84.0208 274.727 83.7344C274.049 83.4479 273.497 83.0729 273.07 82.6094V80.4922H274.227L274.523 82.125C274.82 82.3698 275.174 82.5703 275.586 82.7266C275.997 82.8828 276.49 82.9609 277.062 82.9609C277.839 82.9609 278.451 82.7969 278.898 82.4688C279.352 82.1406 279.578 81.6953 279.578 81.1328C279.578 80.612 279.383 80.1771 278.992 79.8281C278.602 79.474 277.911 79.1771 276.922 78.9375C275.719 78.651 274.779 78.2292 274.102 77.6719C273.424 77.1146 273.086 76.4141 273.086 75.5703C273.086 74.6797 273.464 73.9401 274.219 73.3516C274.974 72.7578 275.956 72.4609 277.164 72.4609C277.961 72.4609 278.685 72.599 279.336 72.875C279.992 73.1458 280.518 73.4766 280.914 73.8672V75.9844Z" fill="#666360"/>
<path d="M328.914 75.9844H327.75L327.461 74.3594C327.227 74.1615 326.914 73.9974 326.523 73.8672C326.133 73.737 325.68 73.6719 325.164 73.6719C324.346 73.6719 323.719 73.8464 323.281 74.1953C322.844 74.5391 322.625 74.9896 322.625 75.5469C322.625 76.0417 322.846 76.4557 323.289 76.7891C323.737 77.1172 324.458 77.4062 325.453 77.6562C326.651 77.9531 327.56 78.3906 328.18 78.9688C328.805 79.5469 329.117 80.263 329.117 81.1172C329.117 82.0339 328.742 82.7708 327.992 83.3281C327.247 83.8854 326.271 84.1641 325.062 84.1641C324.188 84.1641 323.409 84.0208 322.727 83.7344C322.049 83.4479 321.497 83.0729 321.07 82.6094V80.4922H322.227L322.523 82.125C322.82 82.3698 323.174 82.5703 323.586 82.7266C323.997 82.8828 324.49 82.9609 325.062 82.9609C325.839 82.9609 326.451 82.7969 326.898 82.4688C327.352 82.1406 327.578 81.6953 327.578 81.1328C327.578 80.612 327.383 80.1771 326.992 79.8281C326.602 79.474 325.911 79.1771 324.922 78.9375C323.719 78.651 322.779 78.2292 322.102 77.6719C321.424 77.1146 321.086 76.4141 321.086 75.5703C321.086 74.6797 321.464 73.9401 322.219 73.3516C322.974 72.7578 323.956 72.4609 325.164 72.4609C325.961 72.4609 326.685 72.599 327.336 72.875C327.992 73.1458 328.518 73.4766 328.914 73.8672V75.9844Z" fill="#666360"/>
<path d="M36.7734 72.625C38.2578 72.625 39.4505 73.0833 40.3516 74C41.2578 74.9115 41.7109 76.0911 41.7109 77.5391V79.0938C41.7109 80.5469 41.2578 81.7292 40.3516 82.6406C39.4505 83.5469 38.2578 84 36.7734 84H32.0078V83.0156L33.2812 82.7969V73.8359L32.0078 73.6172V72.625H33.2812H36.7734ZM34.8203 73.8359V82.7969H36.7734C37.8255 82.7969 38.6536 82.4505 39.2578 81.7578C39.8672 81.0651 40.1719 80.1771 40.1719 79.0938V77.5234C40.1719 76.4505 39.8672 75.5677 39.2578 74.875C38.6536 74.1823 37.8255 73.8359 36.7734 73.8359H34.8203Z" fill="#666360"/>
</svg>
